<svg width="24" height="24" xmlns="http://www.w3.org/2000/svg">

 <g>
  <title>background</title>
  <rect fill="none" id="canvas_background" height="26" width="26" y="-1" x="-1"/>
 </g>
 <g>
  <title>Layer 1</title>
  <path id="svg_1" stroke-linecap="round" stroke="#000000" d="m1,18c0,-2.25 3,-2.25 4.5,-3.75c0.75,-0.75 -1.5,-0.75 -1.5,-4.5c0,-2.49975 0.99975,-3.75 3,-3.75c2.00025,0 3,1.25025 3,3.75c0,3.75 -2.25,3.75 -1.5,4.5c1.5,1.5 4.5,1.5 4.5,3.75"/>
  <path id="svg_2" stroke-linecap="round" stroke="#000000" d="m11.9947,16.2431c0.567,-0.3908 1.3031,-0.6721 2.0074,-1.0113c0.5507,-0.2653 1.0819,-0.5659 1.4979,-0.9818c0.75,-0.75 -1.5,-0.75 -1.5,-4.5c0,-2.49975 0.9997,-3.75 3,-3.75c2.0002,0 3,1.25025 3,3.75c0,3.75 -2.25,3.75 -1.5,4.5c1.5,1.5 4.5,1.5 4.5,3.75"/>
 </g>
</svg>